M48
; DRILL file {KiCad 9.0.6} date 2026-06-20T16:48:43+0200
; FORMAT={-:-/ absolute / metric / decimal}
; #@! TF.CreationDate,2026-06-20T16:48:43+02:00
; #@! TF.GenerationSoftware,Kicad,Pcbnew,9.0.6
; #@! TF.FileFunction,Plated,1,2,PTH
FMAT,2
METRIC
; #@! TA.AperFunction,Plated,PTH,ViaDrill
T1C0.300
; #@! TA.AperFunction,Plated,PTH,ComponentDrill
T2C0.550
; #@! TA.AperFunction,Plated,PTH,ComponentDrill
T3C0.800
; #@! TA.AperFunction,Plated,PTH,ComponentDrill
T4C0.900
; #@! TA.AperFunction,Plated,PTH,ComponentDrill
T5C1.000
; #@! TA.AperFunction,Plated,PTH,ComponentDrill
T6C1.200
; #@! TA.AperFunction,Plated,PTH,ComponentDrill
T7C2.500
%
G90
G05
T1
X113.699Y-108.7
X113.756Y-105.856
X119.4Y-103.0
X120.0Y-104.813
X120.534Y-101.266
X121.597Y-105.256
X126.505Y-113.605
X128.495Y-113.595
X128.963Y-102.194
X129.463Y-104.337
X140.4Y-110.1
T3
X94.3Y-109.18
X94.3Y-116.8
X96.84Y-109.18
X96.84Y-116.8
X99.38Y-109.18
X99.38Y-116.8
X101.92Y-109.18
X101.92Y-116.8
X104.46Y-109.18
X104.46Y-116.8
X107.0Y-109.18
X107.0Y-116.8
X109.54Y-109.18
X109.54Y-116.8
X112.08Y-109.18
X112.08Y-116.8
T4
X102.2Y-104.3
X106.2Y-104.3
X110.2Y-104.3
T5
X115.6Y-101.62
X115.6Y-104.16
X115.6Y-106.7
X115.6Y-109.24
T6
X93.49Y-120.89
X96.03Y-120.89
X98.57Y-120.89
X100.2Y-100.05
X100.2Y-106.05
X101.11Y-120.89
X103.65Y-120.89
X106.19Y-120.89
X108.73Y-120.89
X111.27Y-120.89
X112.2Y-100.05
X112.2Y-106.05
X113.81Y-120.89
X116.35Y-120.89
X118.89Y-120.89
X121.43Y-120.89
X123.97Y-120.89
X126.51Y-120.89
X129.05Y-120.89
X131.59Y-120.89
T7
X87.991Y-120.89
X87.991Y-151.891
X162.989Y-151.891
X162.99Y-120.89
T2
G00X136.925Y-99.675
M15
G01X136.275Y-99.675
M16
G05
G00X136.925Y-107.45
M15
G01X136.275Y-107.45
M16
G05
M30
