%TF.GenerationSoftware,KiCad,Pcbnew,9.0.6*%
%TF.CreationDate,2026-06-20T20:19:55+02:00*%
%TF.ProjectId,Projekt,50726f6a-656b-4742-9e6b-696361645f70,rev?*%
%TF.SameCoordinates,Original*%
%TF.FileFunction,Soldermask,Bot*%
%TF.FilePolarity,Negative*%
%FSLAX46Y46*%
G04 Gerber Fmt 4.6, Leading zero omitted, Abs format (unit mm)*
G04 Created by KiCad (PCBNEW 9.0.6) date 2026-06-20 20:19:55*
%MOMM*%
%LPD*%
G01*
G04 APERTURE LIST*
G04 Aperture macros list*
%AMRoundRect*
0 Rectangle with rounded corners*
0 $1 Rounding radius*
0 $2 $3 $4 $5 $6 $7 $8 $9 X,Y pos of 4 corners*
0 Add a 4 corners polygon primitive as box body*
4,1,4,$2,$3,$4,$5,$6,$7,$8,$9,$2,$3,0*
0 Add four circle primitives for the rounded corners*
1,1,$1+$1,$2,$3*
1,1,$1+$1,$4,$5*
1,1,$1+$1,$6,$7*
1,1,$1+$1,$8,$9*
0 Add four rect primitives between the rounded corners*
20,1,$1+$1,$2,$3,$4,$5,0*
20,1,$1+$1,$4,$5,$6,$7,0*
20,1,$1+$1,$6,$7,$8,$9,0*
20,1,$1+$1,$8,$9,$2,$3,0*%
G04 Aperture macros list end*
%ADD10O,0.800000X0.800000*%
%ADD11O,1.800000X1.150000*%
%ADD12C,2.000000*%
%ADD13RoundRect,0.250000X0.550000X-0.550000X0.550000X0.550000X-0.550000X0.550000X-0.550000X-0.550000X0*%
%ADD14C,1.600000*%
%ADD15C,1.700000*%
%ADD16C,3.000000*%
%ADD17R,1.800000X2.600000*%
%ADD18O,1.800000X2.600000*%
%ADD19R,1.700000X1.700000*%
G04 APERTURE END LIST*
D10*
%TO.C,J1*%
X137200000Y-106000000D03*
X137200000Y-101300000D03*
D11*
X137300000Y-99725000D03*
X137300000Y-107500000D03*
%TD*%
D12*
%TO.C,H3*%
X86900000Y-157750000D03*
%TD*%
D13*
%TO.C,U4*%
X94300000Y-116800000D03*
D14*
X96840000Y-116800000D03*
X99380000Y-116800000D03*
X101920000Y-116800000D03*
X104460000Y-116800000D03*
X107000000Y-116800000D03*
X109540000Y-116800000D03*
X112080000Y-116800000D03*
X112080000Y-109180000D03*
X109540000Y-109180000D03*
X107000000Y-109180000D03*
X104460000Y-109180000D03*
X101920000Y-109180000D03*
X99380000Y-109180000D03*
X96840000Y-109180000D03*
X94300000Y-109180000D03*
%TD*%
D12*
%TO.C,SW1*%
X112200000Y-106050000D03*
X112200000Y-100050000D03*
X100200000Y-106050000D03*
X100200000Y-100050000D03*
D15*
X110200000Y-104300000D03*
X106200000Y-104300000D03*
X102200000Y-104300000D03*
%TD*%
D16*
%TO.C,DS1*%
X87990900Y-120890000D03*
X87990900Y-151890700D03*
X162989480Y-151890700D03*
X162990000Y-120890000D03*
D17*
X93490000Y-120890000D03*
D18*
X96030000Y-120890000D03*
X98570000Y-120890000D03*
X101110000Y-120890000D03*
X103650000Y-120890000D03*
X106190000Y-120890000D03*
X108730000Y-120890000D03*
X111270000Y-120890000D03*
X113810000Y-120890000D03*
X116350000Y-120890000D03*
X118890000Y-120890000D03*
X121430000Y-120890000D03*
X123970000Y-120890000D03*
X126510000Y-120890000D03*
X129050000Y-120890000D03*
X131590000Y-120890000D03*
%TD*%
D12*
%TO.C,H2*%
X94500000Y-95950000D03*
%TD*%
D19*
%TO.C,J2*%
X115600000Y-109240000D03*
D15*
X115600000Y-106700000D03*
X115600000Y-104160000D03*
X115600000Y-101620000D03*
%TD*%
D12*
%TO.C,H1*%
X140100000Y-95950000D03*
%TD*%
%TO.C,H4*%
X164200000Y-157650000D03*
%TD*%
M02*
