%TF.GenerationSoftware,KiCad,Pcbnew,9.0.6*%
%TF.CreationDate,2026-06-20T20:19:55+02:00*%
%TF.ProjectId,Projekt,50726f6a-656b-4742-9e6b-696361645f70,rev?*%
%TF.SameCoordinates,Original*%
%TF.FileFunction,Soldermask,Top*%
%TF.FilePolarity,Negative*%
%FSLAX46Y46*%
G04 Gerber Fmt 4.6, Leading zero omitted, Abs format (unit mm)*
G04 Created by KiCad (PCBNEW 9.0.6) date 2026-06-20 20:19:55*
%MOMM*%
%LPD*%
G01*
G04 APERTURE LIST*
G04 Aperture macros list*
%AMRoundRect*
0 Rectangle with rounded corners*
0 $1 Rounding radius*
0 $2 $3 $4 $5 $6 $7 $8 $9 X,Y pos of 4 corners*
0 Add a 4 corners polygon primitive as box body*
4,1,4,$2,$3,$4,$5,$6,$7,$8,$9,$2,$3,0*
0 Add four circle primitives for the rounded corners*
1,1,$1+$1,$2,$3*
1,1,$1+$1,$4,$5*
1,1,$1+$1,$6,$7*
1,1,$1+$1,$8,$9*
0 Add four rect primitives between the rounded corners*
20,1,$1+$1,$2,$3,$4,$5,0*
20,1,$1+$1,$4,$5,$6,$7,0*
20,1,$1+$1,$6,$7,$8,$9,0*
20,1,$1+$1,$8,$9,$2,$3,0*%
G04 Aperture macros list end*
%ADD10O,0.800000X0.800000*%
%ADD11O,1.800000X1.150000*%
%ADD12R,1.300000X0.450000*%
%ADD13C,2.000000*%
%ADD14RoundRect,0.135000X-0.135000X-0.185000X0.135000X-0.185000X0.135000X0.185000X-0.135000X0.185000X0*%
%ADD15RoundRect,0.140000X0.140000X0.170000X-0.140000X0.170000X-0.140000X-0.170000X0.140000X-0.170000X0*%
%ADD16RoundRect,0.375000X-0.375000X0.625000X-0.375000X-0.625000X0.375000X-0.625000X0.375000X0.625000X0*%
%ADD17RoundRect,0.500000X-1.400000X0.500000X-1.400000X-0.500000X1.400000X-0.500000X1.400000X0.500000X0*%
%ADD18RoundRect,0.250000X0.250000X0.475000X-0.250000X0.475000X-0.250000X-0.475000X0.250000X-0.475000X0*%
%ADD19RoundRect,0.250000X0.550000X-0.550000X0.550000X0.550000X-0.550000X0.550000X-0.550000X-0.550000X0*%
%ADD20C,1.600000*%
%ADD21RoundRect,0.140000X-0.140000X-0.170000X0.140000X-0.170000X0.140000X0.170000X-0.140000X0.170000X0*%
%ADD22RoundRect,0.218750X-0.256250X0.218750X-0.256250X-0.218750X0.256250X-0.218750X0.256250X0.218750X0*%
%ADD23RoundRect,0.140000X-0.170000X0.140000X-0.170000X-0.140000X0.170000X-0.140000X0.170000X0.140000X0*%
%ADD24RoundRect,0.075000X0.075000X-0.700000X0.075000X0.700000X-0.075000X0.700000X-0.075000X-0.700000X0*%
%ADD25RoundRect,0.075000X0.700000X-0.075000X0.700000X0.075000X-0.700000X0.075000X-0.700000X-0.075000X0*%
%ADD26C,1.700000*%
%ADD27R,0.300000X0.650000*%
%ADD28R,0.350000X0.650000*%
%ADD29RoundRect,0.250000X-0.250000X-0.475000X0.250000X-0.475000X0.250000X0.475000X-0.250000X0.475000X0*%
%ADD30RoundRect,0.135000X-0.185000X0.135000X-0.185000X-0.135000X0.185000X-0.135000X0.185000X0.135000X0*%
%ADD31RoundRect,0.218750X-0.218750X-0.256250X0.218750X-0.256250X0.218750X0.256250X-0.218750X0.256250X0*%
%ADD32C,3.000000*%
%ADD33R,1.800000X2.600000*%
%ADD34O,1.800000X2.600000*%
%ADD35R,1.700000X1.700000*%
G04 APERTURE END LIST*
D10*
%TO.C,J1*%
X137200000Y-106000000D03*
X137200000Y-101300000D03*
D11*
X137300000Y-99725000D03*
X137300000Y-107500000D03*
D12*
X135000000Y-102300000D03*
X135000000Y-102950000D03*
X135000000Y-103600000D03*
X135000000Y-104250000D03*
X135000000Y-104900000D03*
%TD*%
D13*
%TO.C,H3*%
X86900000Y-157750000D03*
%TD*%
D14*
%TO.C,R1*%
X114990000Y-111900000D03*
X116010000Y-111900000D03*
%TD*%
D15*
%TO.C,C5*%
X126680000Y-117300000D03*
X125720000Y-117300000D03*
%TD*%
%TO.C,C3*%
X132880000Y-107800000D03*
X131920000Y-107800000D03*
%TD*%
D16*
%TO.C,U3*%
X140400000Y-110100000D03*
X138200000Y-110100000D03*
D17*
X138200000Y-116400000D03*
D16*
X136000000Y-110100000D03*
%TD*%
D18*
%TO.C,C11*%
X133850000Y-109700000D03*
X131950000Y-109700000D03*
%TD*%
D19*
%TO.C,U4*%
X94300000Y-116800000D03*
D20*
X96840000Y-116800000D03*
X99380000Y-116800000D03*
X101920000Y-116800000D03*
X104460000Y-116800000D03*
X107000000Y-116800000D03*
X109540000Y-116800000D03*
X112080000Y-116800000D03*
X112080000Y-109180000D03*
X109540000Y-109180000D03*
X107000000Y-109180000D03*
X104460000Y-109180000D03*
X101920000Y-109180000D03*
X99380000Y-109180000D03*
X96840000Y-109180000D03*
X94300000Y-109180000D03*
%TD*%
D21*
%TO.C,C6*%
X121620000Y-101220000D03*
X122580000Y-101220000D03*
%TD*%
D22*
%TO.C,FB1*%
X118500000Y-100712500D03*
X118500000Y-102287500D03*
%TD*%
D23*
%TO.C,C1*%
X134200000Y-115520000D03*
X134200000Y-116480000D03*
%TD*%
D24*
%TO.C,U2*%
X120700000Y-115370000D03*
X121200000Y-115370000D03*
X121700000Y-115370000D03*
X122200000Y-115370000D03*
X122700000Y-115370000D03*
X123200000Y-115370000D03*
X123700000Y-115370000D03*
X124200000Y-115370000D03*
X124700000Y-115370000D03*
X125200000Y-115370000D03*
X125700000Y-115370000D03*
X126200000Y-115370000D03*
X126700000Y-115370000D03*
X127200000Y-115370000D03*
X127700000Y-115370000D03*
X128200000Y-115370000D03*
D25*
X130125000Y-113445000D03*
X130125000Y-112945000D03*
X130125000Y-112445000D03*
X130125000Y-111945000D03*
X130125000Y-111445000D03*
X130125000Y-110945000D03*
X130125000Y-110445000D03*
X130125000Y-109945000D03*
X130125000Y-109445000D03*
X130125000Y-108945000D03*
X130125000Y-108445000D03*
X130125000Y-107945000D03*
X130125000Y-107445000D03*
X130125000Y-106945000D03*
X130125000Y-106445000D03*
X130125000Y-105945000D03*
D24*
X128200000Y-104020000D03*
X127700000Y-104020000D03*
X127200000Y-104020000D03*
X126700000Y-104020000D03*
X126200000Y-104020000D03*
X125700000Y-104020000D03*
X125200000Y-104020000D03*
X124700000Y-104020000D03*
X124200000Y-104020000D03*
X123700000Y-104020000D03*
X123200000Y-104020000D03*
X122700000Y-104020000D03*
X122200000Y-104020000D03*
X121700000Y-104020000D03*
X121200000Y-104020000D03*
X120700000Y-104020000D03*
D25*
X118775000Y-105945000D03*
X118775000Y-106445000D03*
X118775000Y-106945000D03*
X118775000Y-107445000D03*
X118775000Y-107945000D03*
X118775000Y-108445000D03*
X118775000Y-108945000D03*
X118775000Y-109445000D03*
X118775000Y-109945000D03*
X118775000Y-110445000D03*
X118775000Y-110945000D03*
X118775000Y-111445000D03*
X118775000Y-111945000D03*
X118775000Y-112445000D03*
X118775000Y-112945000D03*
X118775000Y-113445000D03*
%TD*%
D23*
%TO.C,C7*%
X116900000Y-114020000D03*
X116900000Y-114980000D03*
%TD*%
D13*
%TO.C,SW1*%
X112200000Y-106050000D03*
X112200000Y-100050000D03*
X100200000Y-106050000D03*
X100200000Y-100050000D03*
D26*
X110200000Y-104300000D03*
X106200000Y-104300000D03*
X102200000Y-104300000D03*
%TD*%
D27*
%TO.C,U1*%
X133200000Y-111825000D03*
X132400000Y-111825000D03*
D28*
X132375000Y-113375000D03*
X133175000Y-113375000D03*
%TD*%
D23*
%TO.C,C4*%
X119100000Y-115520000D03*
X119100000Y-116480000D03*
%TD*%
%TO.C,C8*%
X118500000Y-103620000D03*
X118500000Y-104580000D03*
%TD*%
D29*
%TO.C,C10*%
X124350000Y-100700000D03*
X126800000Y-100700000D03*
%TD*%
D21*
%TO.C,C2*%
X128620000Y-117300000D03*
X129580000Y-117300000D03*
%TD*%
D30*
%TO.C,R3*%
X131800000Y-115490000D03*
X131800000Y-116900000D03*
%TD*%
D31*
%TO.C,D1*%
X115262500Y-116500000D03*
X116837500Y-116500000D03*
%TD*%
D32*
%TO.C,DS1*%
X87990900Y-120890000D03*
X87990900Y-151890700D03*
X162989480Y-151890700D03*
X162990000Y-120890000D03*
D33*
X93490000Y-120890000D03*
D34*
X96030000Y-120890000D03*
X98570000Y-120890000D03*
X101110000Y-120890000D03*
X103650000Y-120890000D03*
X106190000Y-120890000D03*
X108730000Y-120890000D03*
X111270000Y-120890000D03*
X113810000Y-120890000D03*
X116350000Y-120890000D03*
X118890000Y-120890000D03*
X121430000Y-120890000D03*
X123970000Y-120890000D03*
X126510000Y-120890000D03*
X129050000Y-120890000D03*
X131590000Y-120890000D03*
%TD*%
D13*
%TO.C,H2*%
X94500000Y-95950000D03*
%TD*%
D15*
%TO.C,C9*%
X123700000Y-117000000D03*
X122740000Y-117000000D03*
%TD*%
D35*
%TO.C,J2*%
X115600000Y-109240000D03*
D26*
X115600000Y-106700000D03*
X115600000Y-104160000D03*
X115600000Y-101620000D03*
%TD*%
D13*
%TO.C,H1*%
X140100000Y-95950000D03*
%TD*%
D30*
%TO.C,R2*%
X115062500Y-113985000D03*
X115062500Y-115005000D03*
%TD*%
D13*
%TO.C,H4*%
X164200000Y-157650000D03*
%TD*%
M02*
